<svg t="1662713163318" class="icon" viewBox="0 0 1024 1024" version="1.1" xmlns="http://www.w3.org/2000/svg" p-id="2400" width="200" height="200"><path d="M184.233333 541.1A192.04 192.04 0 0 1 272 219.386667a21.333333 21.333333 0 0 1 10.666667 41.333333A149.226667 149.226667 0 0 0 170.666667 405.333333c0 82.34 66.993333 149.333333 149.333333 149.333334a149.906667 149.906667 0 0 0 37.333333-4.666667 21.333333 21.333333 0 1 1 10.666667 41.333333 192.293333 192.293333 0 0 1-183.753333-50.18zM106.666667 896H53.333333a10.666667 10.666667 0 0 1-10.666666-10.666667v-21.333333c0-76.46 62.206667-138.666667 138.666666-138.666667h10.666667a21.333333 21.333333 0 0 0 0-42.666666h-10.666667A181.333333 181.333333 0 0 0 0 864v21.333333a53.393333 53.393333 0 0 0 53.333333 53.333334h53.333334a21.333333 21.333333 0 0 0 0-42.666667z m554.666666-213.333333H384a213.333333 213.333333 0 0 0-213.333333 213.333333v32a53.393333 53.393333 0 0 0 53.333333 53.333333h394.666667a21.333333 21.333333 0 0 0 0-42.666666H224a10.666667 10.666667 0 0 1-10.666667-10.666667v-32c0-94.106667 76.56-170.666667 170.666667-170.666667h277.333333a21.333333 21.333333 0 0 0 0-42.666666z m341.333334 128h-106.666667v-106.666667a21.333333 21.333333 0 0 0-42.666667 0v106.666667h-106.666666a21.333333 21.333333 0 0 0 0 42.666666h106.666666v106.666667a21.333333 21.333333 0 0 0 42.666667 0v-106.666667h106.666667a21.333333 21.333333 0 0 0 0-42.666666z m-149.333334-512c0 141.386667-114.613333 256-256 256S341.333333 440.053333 341.333333 298.666667 455.946667 42.666667 597.333333 42.666667s256 114.613333 256 256zM597.333333 85.333333c-117.82 0-213.333333 95.513333-213.333333 213.333334s95.513333 213.333333 213.333333 213.333333 213.333333-95.513333 213.333334-213.333333-95.513333-213.333333-213.333334-213.333334z" fill="#5C5C66" p-id="2401"></path></svg>