<svg t="1663813142043" class="icon" viewBox="0 0 1024 1024" version="1.1" xmlns="http://www.w3.org/2000/svg" p-id="5155" width="200" height="200"><path d="M512 133.248c84.48 0 153.6 69.12 153.6 153.6v168.96c0 84.48-69.12 153.6-153.6 153.6s-153.6-69.12-153.6-153.6v-168.96c0-84.48 69.12-153.6 153.6-153.6m0-69.12c-122.88 0-222.72 99.84-222.72 222.72v168.96c0 122.88 99.84 222.72 222.72 222.72s222.72-99.84 222.72-222.72v-168.96c0-122.88-99.84-222.72-222.72-222.72z" fill="#666666" p-id="5156"></path><path d="M885.24288 464.512c0-18.432-14.848-33.792-33.792-33.792-18.432 0-33.792 14.848-33.792 33.792 0 158.208-137.216 287.232-305.664 287.232s-305.664-129.024-305.664-287.232c0-18.432-15.36-33.792-33.792-33.792-18.432 0-33.792 14.848-33.792 33.792 0 184.6016 148.38272 336.4864 337.92 353.664v108.81024c0 17.94048 15.74912 32.88576 35.84 32.88576s35.84-14.9504 35.84-32.88576V818.176c189.53216-17.1776 337.86368-169.0624 336.896-353.664z" fill="#666666" p-id="5157"></path></svg>