<svg t="1662112739187" class="icon" viewBox="0 0 1024 1024" version="1.1" xmlns="http://www.w3.org/2000/svg" p-id="3302" width="200" height="200"><path d="M512 989.866667C249.173333 989.866667 34.133333 776.533333 34.133333 512 34.133333 249.173333 249.173333 34.133333 512 34.133333s477.866667 215.04 477.866667 477.866667c0 264.533333-215.04 477.866667-477.866667 477.866667z m0-904.533334C276.48 85.333333 85.333333 276.48 85.333333 512s191.146667 426.666667 426.666667 426.666667 426.666667-191.146667 426.666667-426.666667S747.52 85.333333 512 85.333333z" fill="#333333" p-id="3303"></path><path d="M512 786.773333c-128 0-179.2-100.693333-180.906667-104.106666-3.413333-8.533333-3.413333-17.066667 1.706667-25.6 5.12-6.826667 13.653333-11.946667 22.186667-11.946667h317.44c8.533333 0 17.066667 5.12 22.186666 11.946667 5.12 6.826667 5.12 17.066667 1.706667 25.6-5.12 3.413333-56.32 104.106667-184.32 104.106666z m-105.813333-90.453333c22.186667 18.773333 56.32 39.253333 105.813333 39.253333 49.493333 0 83.626667-20.48 105.813333-39.253333H406.186667zM692.906667 515.413333c-6.826667 0-13.653333-1.706667-18.773334-6.826666l-68.266666-68.266667c-10.24-10.24-10.24-25.6 0-35.84l68.266666-68.266667c10.24-10.24 25.6-10.24 35.84 0 10.24 10.24 10.24 25.6 0 35.84l-49.493333 49.493334 49.493333 49.493333c10.24 10.24 10.24 25.6 0 35.84-3.413333 6.826667-10.24 8.533333-17.066666 8.533333zM331.093333 515.413333c-6.826667 0-13.653333-1.706667-18.773333-6.826666-10.24-10.24-10.24-25.6 0-35.84l49.493333-49.493334-49.493333-49.493333c-10.24-10.24-10.24-25.6 0-35.84 10.24-10.24 25.6-10.24 35.84 0l68.266667 68.266667c10.24 10.24 10.24 25.6 0 35.84l-68.266667 68.266666c-3.413333 3.413333-10.24 5.12-17.066667 5.12z" fill="#333333" p-id="3304"></path></svg>